<svg width="800" height="600" viewBox="0 0 800 600" fill="none" xmlns="http://www.w3.org/2000/svg">
  <rect width="800" height="600" fill="#F3F4F6"/>
  <path d="M400 150C323.726 150 262 211.726 262 288C262 364.274 323.726 426 400 426C476.274 426 538 364.274 538 288C538 211.726 476.274 150 400 150Z" stroke="#1F2937" stroke-width="2"/>
  <path d="M400 200L450 300L400 400L350 300L400 200Z" fill="#4B5563"/>
  <circle cx="400" cy="200" r="10" fill="#1F2937"/>
  <circle cx="450" cy="300" r="10" fill="#1F2937"/>
  <circle cx="400" cy="400" r="10" fill="#1F2937"/>
  <circle cx="350" cy="300" r="10" fill="#1F2937"/>
  <path d="M400 200L450 300M450 300L400 400M400 400L350 300M350 300L400 200" stroke="#1F2937" stroke-width="2" stroke-dasharray="4 4"/>
  <circle cx="400" cy="288" r="5" fill="#1F2937"/>
</svg>