<svg width="135" height="135" viewBox="0 0 135 135" fill="none" xmlns="http://www.w3.org/2000/svg">
<path d="M67.5 135H0V0H67.5C104.693 0 135 30.3075 135 67.5C135 85.5225 127.98 102.465 115.223 115.223C102.465 127.98 85.5225 135 67.5 135ZM0.742525 134.258H67.5C85.32 134.258 102.06 127.305 114.683 114.683C127.305 102.06 134.258 85.32 134.258 67.5C134.258 30.7125 104.355 0.742504 67.5 0.742504H0.742525V134.258Z" fill="#7D7CF9"/>
<path d="M65.6101 134.258H0.675049V4.38751H65.6101C101.385 4.38751 130.545 33.5475 130.545 69.3225C130.545 86.67 123.795 102.938 111.51 115.223C99.225 127.508 82.9576 134.258 65.6101 134.258ZM1.41757 133.448H65.6101C82.7551 133.448 98.8876 126.765 110.97 114.683C123.12 102.533 129.735 86.4675 129.735 69.3225C129.735 33.9525 100.98 5.13002 65.5426 5.13002H1.35005V133.448H1.41757Z" fill="#8278F5"/>
<path d="M63.72 133.515H1.34998V8.77502H63.72C98.0775 8.77502 126.09 36.72 126.09 71.145C126.09 87.8175 119.61 103.478 107.797 115.223C96.0525 126.968 80.3925 133.515 63.72 133.515ZM2.0925 132.705H63.72C80.19 132.705 95.6475 126.293 107.257 114.683C118.867 103.073 125.28 87.5475 125.28 71.145C125.28 37.1925 97.6725 9.51753 63.6525 9.51753H2.02498V132.705H2.0925Z" fill="#8773F1"/>
<path d="M61.8301 132.705H2.02502V13.1625H61.8301C94.7701 13.1625 121.635 39.96 121.635 72.9675C121.635 88.965 115.425 103.95 104.153 115.222C92.8126 126.495 77.8276 132.705 61.8301 132.705ZM2.76755 131.962H61.8301C77.6251 131.962 92.4075 125.82 103.545 114.682C114.683 103.545 120.825 88.695 120.825 72.9675C120.825 40.4325 94.365 13.905 61.7625 13.905H2.70002V131.962H2.76755Z" fill="#8C6FED"/>
<path d="M59.94 131.962H2.69995V17.55H59.94C91.53 17.55 117.18 43.2 117.18 74.79C117.18 90.045 111.24 104.422 100.44 115.29C89.5725 126.022 75.195 131.962 59.94 131.962ZM3.44248 131.22H59.94C74.9925 131.22 89.235 125.348 99.9 114.683C110.565 104.018 116.437 89.8425 116.437 74.7225C116.437 43.605 91.125 18.225 60.0075 18.225H3.50996V131.22H3.44248Z" fill="#926AEA"/>
<path d="M58.05 131.22H3.375V21.87H58.05C88.2225 21.87 112.725 46.3725 112.725 76.545C112.725 91.125 107.055 104.895 96.7275 115.222C86.4 125.55 72.63 131.22 58.05 131.22ZM4.11752 130.477H58.05C72.4275 130.477 85.995 124.875 96.1875 114.682C106.38 104.49 111.983 90.99 111.983 76.545C111.983 46.845 87.8175 22.6125 58.1175 22.6125H4.18501V130.477H4.11752Z" fill="#9766E6"/>
<path d="M56.1601 130.477H4.05005V26.2575H56.1601C84.9151 26.2575 108.27 49.6125 108.27 78.3675C108.27 92.2725 102.87 105.368 93.0151 115.223C83.1601 125.078 70.0651 130.477 56.1601 130.477ZM4.79257 129.735H56.0926C69.7951 129.735 82.6876 124.403 92.4076 114.683C102.128 104.963 107.46 92.07 107.46 78.3675C107.46 50.085 84.4426 27.0675 56.1601 27.0675H4.86006V129.735H4.79257Z" fill="#9C61E2"/>
<path d="M54.27 129.735H4.72498V30.645H54.27C81.6075 30.645 103.815 52.8525 103.815 80.19C103.815 93.42 98.685 105.84 89.3025 115.223C79.92 124.605 67.5 129.735 54.27 129.735ZM5.4675 128.925H54.2025C67.23 128.925 79.4475 123.862 88.695 114.615C97.875 105.435 103.005 93.15 103.005 80.1225C103.005 53.2575 81.135 31.3875 54.27 31.3875H5.53498V128.925H5.4675Z" fill="#A15DDE"/>
<path d="M52.38 128.993H5.40002V35.0325H52.38C78.3001 35.0325 99.36 56.0925 99.36 82.0125C99.36 94.5675 94.5001 106.38 85.5901 115.223C76.6801 124.065 64.9351 128.993 52.38 128.993ZM6.14255 128.183H52.3125C64.665 128.183 76.275 123.39 84.9825 114.683C93.69 105.975 98.4825 94.365 98.4825 82.0125C98.4825 56.565 77.76 35.8425 52.3125 35.8425H6.14255V128.183Z" fill="#A659DA"/>
<path d="M50.49 128.25H6.07495V39.42H50.49C74.9925 39.42 94.905 59.3325 94.905 83.835C94.905 95.715 90.315 106.853 81.8775 115.223C73.5075 123.593 62.3025 128.25 50.49 128.25ZM6.81748 127.44H50.4225C62.1 127.44 73.035 122.918 81.27 114.683C89.505 106.448 94.0275 95.5125 94.0275 83.835C94.0275 59.805 74.4525 40.23 50.4225 40.23H6.81748V127.44Z" fill="#AB54D6"/>
<path d="M48.6 127.44H6.75V43.8075H48.6C71.685 43.8075 90.45 62.5725 90.45 85.6575C90.45 96.795 86.13 107.325 78.2325 115.222C70.2675 123.12 59.7375 127.44 48.6 127.44ZM7.49252 126.697H48.5325C59.535 126.697 69.795 122.445 77.5575 114.682C85.32 106.92 89.5725 96.5925 89.5725 85.6575C89.5725 63.045 71.145 44.6175 48.5325 44.6175H7.49252V126.697Z" fill="#B050D2"/>
<path d="M46.7101 126.698H7.42505V48.195H46.7101C68.3776 48.195 85.9951 65.8125 85.9951 87.48C85.9951 97.9425 81.9451 107.798 74.5201 115.223C67.0276 122.648 57.1726 126.698 46.7101 126.698ZM8.16757 125.955H46.6426C56.9026 125.955 66.6226 121.973 73.8451 114.683C81.1351 107.393 85.1176 97.74 85.1176 87.48C85.1176 66.285 67.8376 49.005 46.6426 49.005H8.16757V125.955Z" fill="#B64BCF"/>
<path d="M44.82 125.955H8.09998V52.5825H44.82C65.07 52.5825 81.54 69.0525 81.54 89.3025C81.54 99.09 77.6925 108.338 70.8075 115.223C63.7875 122.175 54.6075 125.955 44.82 125.955ZM8.8425 125.212H44.7525C54.3375 125.212 63.3825 121.5 70.1325 114.683C76.95 107.865 80.6625 98.8875 80.6625 89.3025C80.6625 69.4575 64.53 53.3925 44.7525 53.3925H8.8425V125.212Z" fill="#BB47CB"/>
<path d="M42.93 125.213H8.77502V56.97H42.93C61.7625 56.97 77.085 72.2925 77.085 91.125C77.085 100.238 73.5075 108.81 67.095 115.29C60.615 121.635 52.0425 125.213 42.93 125.213ZM9.51755 124.47H42.8625C51.7725 124.47 60.1425 121.028 66.42 114.683C72.6975 108.405 76.2075 100.035 76.2075 91.125C76.2075 72.6975 61.2225 57.78 42.8625 57.78H9.51755V124.47Z" fill="#C042C7"/>
<path d="M41.04 124.47H9.44995V61.3575H41.04C58.455 61.3575 72.63 75.5325 72.63 92.9475C72.63 101.385 69.3225 109.283 63.3825 115.29C57.375 121.163 49.41 124.47 41.04 124.47ZM10.1925 123.66H40.9725C49.2075 123.66 56.9025 120.488 62.775 114.615C68.58 108.81 71.82 101.048 71.82 92.8125C71.82 75.8025 57.9825 62.0325 41.04 62.0325H10.26V123.66H10.1925Z" fill="#C53EC3"/>
<path d="M39.15 123.727H10.125V65.745H39.15C55.1475 65.745 68.175 78.7725 68.175 94.77C68.175 102.532 65.1375 109.822 59.67 115.29C54.135 120.69 46.845 123.727 39.15 123.727ZM10.8675 122.918H39.0825C46.6425 122.918 53.73 120.015 59.0625 114.682C64.395 109.35 67.2975 102.262 67.2975 94.7025C67.2975 79.11 54.6075 66.4875 39.0825 66.4875H10.8675V122.918Z" fill="#CA3ABF"/>
<path d="M37.2601 122.985H10.8V70.1325H37.2601C51.8401 70.1325 63.7201 82.0125 63.7201 96.5925C63.7201 103.68 60.9526 110.295 55.9576 115.29C50.8951 120.217 44.2801 122.985 37.2601 122.985ZM11.5426 122.175H37.1926C44.0776 122.175 50.49 119.475 55.35 114.683C60.21 109.823 62.8426 103.41 62.8426 96.525C62.8426 82.35 51.3001 70.875 37.1926 70.875H11.5426V122.175Z" fill="#CF35BB"/>
<path d="M35.3025 122.175H11.4075V74.4525H35.3025C48.465 74.4525 59.13 85.185 59.13 98.3475C59.13 104.693 56.6325 110.7 52.11 115.223C47.7225 119.745 41.715 122.175 35.3025 122.175ZM12.2175 121.433H35.3025C41.445 121.433 47.25 119.003 51.6375 114.683C56.025 110.295 58.3875 104.49 58.3875 98.3475C58.3875 85.59 48.06 75.2625 35.3025 75.2625H12.2175V121.433Z" fill="#D431B7"/>
<path d="M33.4125 121.433H12.15V78.84H33.4125C45.1575 78.84 54.675 88.425 54.675 100.103C54.675 105.773 52.4476 111.105 48.4651 115.155C44.4826 119.205 39.15 121.433 33.4125 121.433ZM12.8925 120.69H33.4125C38.88 120.69 44.0775 118.53 47.925 114.683C51.7725 110.835 53.9325 105.638 53.9325 100.17C53.9325 88.83 44.7525 79.65 33.4125 79.65H12.8925V120.69Z" fill="#DA2CB4"/>
<path d="M31.5225 120.69H12.825V83.2275H31.5225C41.85 83.2275 50.22 91.5975 50.22 101.925C50.22 106.92 48.2625 111.645 44.7525 115.155C41.2425 118.733 36.585 120.69 31.5225 120.69ZM13.5675 119.948H31.5225C36.315 119.948 40.8375 118.058 44.2125 114.683C47.5875 111.308 49.4775 106.785 49.4775 101.993C49.4775 92.07 41.445 84.0375 31.5225 84.0375H13.5675V119.948Z" fill="#DF28B0"/>
<path d="M29.6325 119.948H13.5V87.6151H29.6325C38.5425 87.6151 45.765 94.8375 45.765 103.748C45.765 108.068 44.0775 112.118 41.04 115.155C38.0025 118.26 33.9525 119.948 29.6325 119.948ZM14.2425 119.205H29.6325C33.75 119.205 37.5975 117.585 40.5 114.683C43.4025 111.78 45.0225 107.933 45.0225 103.815C45.0225 95.3101 38.1375 88.425 29.6325 88.425H14.2425V119.205Z" fill="#E423AC"/>
<path d="M27.7426 119.205H14.175V92.0026H27.7426C35.2351 92.0026 41.3101 98.0776 41.3101 105.57C41.3101 109.215 39.8926 112.59 37.3276 115.155C34.8301 117.788 31.3876 119.205 27.7426 119.205ZM14.9176 118.395H27.7426C31.1851 118.395 34.3575 117.045 36.7875 114.615C39.2175 112.185 40.5676 108.945 40.5676 105.57C40.5676 98.4826 34.8301 92.7451 27.7426 92.7451H14.9176V118.395Z" fill="#E91FA8"/>
</svg>
