<svg width="109" height="135" viewBox="0 0 109 135" fill="none" xmlns="http://www.w3.org/2000/svg">
<path d="M80.8352 80.8353C95.5326 80.8353 107.506 92.7452 107.506 107.506C107.506 122.203 95.5959 134.176 80.8352 134.176C66.0746 134.176 54.1647 122.267 54.1647 107.506C54.228 92.7452 66.1379 80.8353 80.8352 80.8353Z" fill="#F543FF"/>
<path d="M27.5575 0.886902C42.2548 0.886902 54.2281 12.7968 54.2281 27.5575C54.2281 42.2548 42.3182 54.2281 27.5575 54.2281C12.7968 54.2281 0.886963 42.3181 0.886963 27.5575C0.950313 12.8601 12.8602 0.886902 27.5575 0.886902Z" fill="#F543FF"/>
<path d="M55.115 107.443C55.115 122.647 42.7616 135 27.5575 135C12.3534 135 0 122.647 0 107.443C0 106.936 0.380119 106.556 0.886923 106.556H54.1647C54.7349 106.556 55.115 106.999 55.115 107.443ZM1.83718 108.329C2.28063 122.14 13.6837 133.226 27.5575 133.226C41.4312 133.226 52.8343 122.14 53.2778 108.329H1.83718Z" fill="black"/>
<path d="M55.115 80.8353C55.115 96.0394 42.7616 108.393 27.5575 108.393C12.3534 108.393 0 96.0394 0 80.8353C0 80.3285 0.380119 79.9484 0.886923 79.9484H54.1647C54.7349 79.9484 55.115 80.3285 55.115 80.8353ZM1.83718 81.7222C2.28063 95.5326 13.6837 106.619 27.5575 106.619C41.4312 106.619 52.8343 95.5326 53.2778 81.7222H1.83718Z" fill="black"/>
<path d="M108.393 107.442C108.393 107.949 108.013 108.329 107.506 108.329H54.228C53.7212 108.329 53.3411 107.949 53.3411 107.442C53.3411 92.2384 65.6944 79.885 80.8985 79.885C96.1027 79.885 108.393 92.3017 108.393 107.442ZM55.1149 106.556H106.619C106.175 92.7452 94.7723 81.6588 80.8985 81.6588C66.9614 81.7222 55.6217 92.8085 55.1149 106.556Z" fill="black"/>
<path d="M108.393 80.8353C108.393 81.3421 108.013 81.7222 107.506 81.7222H54.228C53.7212 81.7222 53.3411 81.3421 53.3411 80.8353C53.3411 65.6312 65.6944 53.2778 80.8985 53.2778C96.1027 53.2778 108.393 65.6312 108.393 80.8353ZM55.1149 79.9484H106.619C106.175 66.138 94.7723 55.0516 80.8985 55.0516C66.9614 55.0516 55.6217 66.138 55.1149 79.9484Z" fill="black"/>
<path d="M55.115 54.1647C55.115 69.3688 42.7616 81.7222 27.5575 81.7222C12.3534 81.7222 0 69.3688 0 54.1647C0 53.6579 0.380119 53.2778 0.886923 53.2778H54.1647C54.7349 53.2778 55.115 53.7213 55.115 54.1647ZM1.83718 55.0516C2.28063 68.8621 13.6837 79.9484 27.5575 79.9484C41.4312 79.9484 52.8343 68.8621 53.2778 55.0516H1.83718Z" fill="black"/>
<path d="M55.115 27.5575C55.115 42.7616 42.7616 55.115 27.5575 55.115C12.3534 55.115 0 42.7616 0 27.5575C0 27.0507 0.380119 26.6706 0.886923 26.6706H54.1647C54.7349 26.6706 55.115 27.0507 55.115 27.5575ZM1.83718 28.4444C2.28063 42.2548 13.6837 53.3412 27.5575 53.3412C41.4312 53.3412 52.8343 42.2548 53.2778 28.4444H1.83718Z" fill="black"/>
<path d="M108.393 54.1647C108.393 54.6715 108.013 55.0516 107.506 55.0516H54.228C53.7212 55.0516 53.3411 54.6715 53.3411 54.1647C53.3411 38.9606 65.6944 26.6072 80.8985 26.6072C96.1027 26.6072 108.393 39.0239 108.393 54.1647ZM55.1149 53.2778H106.619C106.175 39.4674 94.7723 28.3811 80.8985 28.3811C66.9614 28.4444 55.6217 39.5308 55.1149 53.2778Z" fill="black"/>
<path d="M108.393 27.5575C108.393 28.0643 108.013 28.4444 107.506 28.4444H54.228C53.7212 28.4444 53.3411 28.0643 53.3411 27.5575C53.3411 12.3534 65.6944 0 80.8985 0C96.1027 0 108.393 12.3534 108.393 27.5575ZM55.1149 26.6706H106.619C106.175 12.8602 94.7723 1.77385 80.8985 1.77385C66.9614 1.77385 55.6217 12.8602 55.1149 26.6706Z" fill="black"/>
</svg>
