<svg xmlns="http://www.w3.org/2000/svg" viewBox="0 0 24 24" fill="none" stroke="currentColor" stroke-width="2" stroke-linecap="round" stroke-linejoin="round">
  <path d="M18 10h-4a2 2 0 0 1-2-2V4a2 2 0 0 1 2-2h4a2 2 0 0 1 2 2v4a2 2 0 0 1-2 2z"/>
  <path d="M10 20H6a2 2 0 0 1-2-2v-4a2 2 0 0 1 2-2h4a2 2 0 0 1 2 2v4a2 2 0 0 1-2 2z"/>
  <path d="M14 14h.01"/>
  <path d="M14 17h.01"/>
  <path d="M10 14h.01"/>
  <path d="M10 17h.01"/>
  <path d="M7 14h.01"/>
  <path d="M7 17h.01"/>
  <path d="M17 14h.01"/>
  <path d="M17 17h.01"/>
</svg>