<svg xmlns="http://www.w3.org/2000/svg" viewBox="0 0 24 24"><path fill="#3776AB" d="M11.95 0C5.85 0 6.22 2.7 6.22 2.7l.01 2.8h5.85v.83H3.87S0 5.9 0 12.17c0 6.27 3.38 6.05 3.38 6.05h2.02v-2.91s-.11-3.38 3.31-3.38h5.7s3.2.05 3.2-3.09V3.4S18.04 0 11.95 0zM8.73 1.58c.58 0 1.05.47 1.05 1.05 0 .58-.47 1.05-1.05 1.05-.58 0-1.05-.47-1.05-1.05 0-.58.47-1.05 1.05-1.05z"/><path fill="#FDD835" d="M12.05 24c6.1 0 5.73-2.7 5.73-2.7l-.01-2.8h-5.85v-.83h8.21s3.87.43 3.87-5.84c0-6.27-3.38-6.05-3.38-6.05h-2.02v2.91s.11 3.38-3.31 3.38h-5.7s-3.2-.05-3.2 3.09v5.44S5.96 24 12.05 24zm3.22-1.58c-.58 0-1.05-.47-1.05-1.05 0-.58.47-1.05 1.05-1.05.58 0 1.05.47 1.05 1.05 0 .58-.47 1.05-1.05 1.05z"/></svg>